PathFileType	4	(X/Y/Z)	/Users/itak/Documents/Research/Walk-IL/dataset/trc/00452_00167.trc
DataRate	CameraRate	NumFrames	NumMarkers	Units	OrigDataRate	OrigDataStartFrame	OrigNumFrames
100.000000	100.000000	4	53	mm	100.000000	218	437
Frame#	Time	RPSI			LPSI			L3			STRN			T10			C7			CLAV			RBAK			LBAK			LSHO			LUPA			LAEL			LAOL			LWTS			LWPS			LFRA			LIFD			LHPS			LHTS			RSHO			RUPA			RAEL			RAOL			RWTS			RWPS			RFRA			RIFD			RHTS			RHPS			RBHD			LFHD			RFHD			LBHD			LHIP			RHIP			RASI			LASI			LKNE			LTHI			LANK			LTIP			LTOE			LMT1			LMT5			LHEE			RKNE			RTHI			RANK			RTIP			RTOE			RMT1			RMT5			RHEE			
		X1	Y1	Z1	X2	Y2	Z2	X3	Y3	Z3	X4	Y4	Z4	X5	Y5	Z5	X6	Y6	Z6	X7	Y7	Z7	X8	Y8	Z8	X9	Y9	Z9	X10	Y10	Z10	X11	Y11	Z11	X12	Y12	Z12	X13	Y13	Z13	X14	Y14	Z14	X15	Y15	Z15	X16	Y16	Z16	X17	Y17	Z17	X18	Y18	Z18	X19	Y19	Z19	X20	Y20	Z20	X21	Y21	Z21	X22	Y22	Z22	X23	Y23	Z23	X24	Y24	Z24	X25	Y25	Z25	X26	Y26	Z26	X27	Y27	Z27	X28	Y28	Z28	X29	Y29	Z29	X30	Y30	Z30	X31	Y31	Z31	X32	Y32	Z32	X33	Y33	Z33	X34	Y34	Z34	X35	Y35	Z35	X36	Y36	Z36	X37	Y37	Z37	X38	Y38	Z38	X39	Y39	Z39	X40	Y40	Z40	X41	Y41	Z41	X42	Y42	Z42	X43	Y43	Z43	X44	Y44	Z44	X45	Y45	Z45	X46	Y46	Z46	X47	Y47	Z47	X48	Y48	Z48	X49	Y49	Z49	X50	Y50	Z50	X51	Y51	Z51	X52	Y52	Z52	X53	Y53	Z53	

219	2.18	-927.4698486328125	952.7455444335938	-114.5300674438477	-852.4656982421875	940.4088745117188	-236.1125335693359	-867.090576171875	1046.877075195312	-126.2264175415039	-572.2584228515625	1165.871704101562	10.72591781616211	-848.616943359375	1168.270141601562	-103.1690826416016	-742.27294921875	1405.4775390625	-16.2617244720459	-579.4624633789062	1285.129516601562	14.89828968048096	-856.5267944335938	1294.340942382812	28.32462310791016	-740.5023193359375	1381.305419921875	-119.3416061401367	-610.6660766601562	1389.396728515625	-159.5182342529297	-638.0127563476562	1331.1787109375	-288.906982421875	-736.6319580078125	1175.230834960938	-403.17431640625	-824.1986083984375	1201.315307617188	-353.7687683105469	-777.5865478515625	970.0690307617188	-415.3898010253906	-827.8095092773438	981.0252685546875	-471.0380859375	-762.9450073242188	1095.3857421875	-438.313232421875	-836.3786010742188	814.1312866210938	-427.3106994628906	-854.8156127929688	898.729248046875	-476.0416259765625	-796.0372314453125	885.6231689453125	-435.3110656738281	-745.6803588867188	1347.9306640625	149.8798675537109	-800.0713500976562	1283.910034179688	202.3968353271484	-829.8239135742188	1016.532531738281	244.3240356445312	-856.9263305664062	974.3043823242188	195.8822631835938	-621.5542602539062	948.26220703125	234.9660491943359	-659.5130615234375	882.391357421875	279.0115661621094	-792.3017578125	973.6279296875	257.8791198730469	-495.8817138671875	854.7119140625	247.3643951416016	-536.8198852539062	900.2963256835938	256.8150634765625	-576.9667358398438	842.266357421875	284.5335388183594	-725.0949096679688	1570.415893554688	83.15656280517578	-533.7672729492188	1608.045654296875	13.90742301940918	-599.3114013671875	1605.43212890625	127.3122253417969	-650.8199462890625	1576.051513671875	-78.99803161621094	-672.550537109375	829.0194702148438	-266.5876770019531	-921.526123046875	826.5018310546875	51.96384811401367	-795.7376098632812	843.7501220703125	59.79937744140625	-652.699951171875	854.7393188476562	-146.3233489990234	-527.8190307617188	444.8328552246094	-163.13037109375	-533.001708984375	604.541015625	-185.1895599365234	-838.5171508789062	162.8989105224609	-303.4299011230469	-625.3273315429688	324.6957397460938	-220.7846832275391	-684.7947387695312	58.07837677001953	-169.5232696533203	-751.189208984375	90.86288452148438	-161.7036743164062	-717.1880493164062	90.74327850341797	-269.2704772949219	-896.5274047851562	195.7122344970703	-270.3353881835938	-953.0029296875	436.4608154296875	-12.95142269134521	-910.400146484375	683.8716430664062	63.34131622314453	-1191.595458984375	94.17208099365234	-155.5837860107422	-1023.77392578125	309.192626953125	-44.29893112182617	-996.989990234375	47.47841262817383	-104.9965896606445	-1023.506286621094	56.80453491210938	-161.8324584960938	-1099.437744140625	45.31052017211914	-82.57360076904297	-1221.463500976562	124.6720886230469	-225.200439453125	
220	2.19	-906.71875	960.6697387695312	-105.4428787231445	-831.9411010742188	948.4871215820312	-226.8515167236328	-846.9920043945312	1055.047729492188	-116.6921539306641	-552.8805541992188	1175.260620117188	17.23740577697754	-829.8748779296875	1176.43017578125	-93.6197509765625	-724.2393798828125	1413.714477539062	-8.539181709289551	-560.72900390625	1294.324829101562	21.1754150390625	-837.408447265625	1302.696655273438	38.02754974365234	-722.5279541015625	1389.551635742188	-110.8006134033203	-593.0398559570312	1398.439453125	-151.7106475830078	-621.3489990234375	1343.36328125	-281.3236694335938	-724.5930786132812	1189.383422851562	-395.021728515625	-810.69482421875	1215.71142578125	-343.4842529296875	-765.8286743164062	984.0421142578125	-406.7464904785156	-817.5596923828125	994.7891235351562	-461.2962646484375	-751.793701171875	1109.744262695312	-429.9682922363281	-825.7100219726562	827.9230346679688	-415.4772338867188	-845.1804809570312	912.1183471679688	-464.7685546875	-785.1641845703125	899.3533935546875	-425.5859375	-724.9542846679688	1357.121337890625	157.4981079101562	-778.0834350585938	1293.553833007812	211.5071563720703	-806.1109619140625	1028.087890625	254.8755493164062	-834.5376586914062	984.3787231445312	208.2384185791016	-596.7134399414062	967.2009887695312	237.4412078857422	-629.707275390625	900.1287841796875	283.9483337402344	-766.526611328125	986.7471923828125	267.2066345214844	-466.2626953125	880.7000122070312	245.1017150878906	-508.9776306152344	924.1866455078125	256.69580078125	-544.8429565429688	864.3936767578125	286.7925720214844	-706.0780029296875	1578.951782226562	89.61777496337891	-514.638671875	1615.677001953125	20.43752098083496	-580.1273193359375	1613.362426757812	133.8175659179688	-631.8303833007812	1584.4228515625	-72.49948120117188	-651.62158203125	838.158447265625	-256.2665405273438	-903.1790161132812	834.5692749023438	60.25928115844727	-776.8407592773438	850.93994140625	68.95626068115234	-633.0763549804688	863.33203125	-135.9942626953125	-505.8135681152344	453.5115661621094	-149.5432434082031	-512.9074096679688	614.02783203125	-172.9384307861328	-795.2232666015625	145.3631744384766	-278.8281555175781	-594.7250366210938	325.2820434570312	-202.9796447753906	-634.0601196289062	58.35136413574219	-141.6905822753906	-702.7806396484375	85.46949005126953	-134.9416351318359	-668.7906494140625	84.31339263916016	-242.4980010986328	-855.53173828125	174.8023529052734	-246.7578887939453	-944.68994140625	446.257568359375	-6.507361888885498	-894.90869140625	692.0721435546875	71.24842834472656	-1186.96142578125	103.3467788696289	-150.1740417480469	-1017.088073730469	319.7086486816406	-37.49648284912109	-997.1875610351562	47.09733200073242	-104.5546264648438	-1022.048767089844	57.68314743041992	-160.0330505371094	-1097.649658203125	45.77100372314453	-80.80873107910156	-1214.603393554688	138.8736267089844	-218.0072326660156	
221	2.2	-885.7784423828125	968.4979248046875	-96.16566467285156	-811.3461303710938	956.55810546875	-217.4013366699219	-826.759033203125	1063.162353515625	-107.1344146728516	-533.3048095703125	1184.590942382812	23.85911560058594	-810.93115234375	1184.5458984375	-84.16827392578125	-706.0320434570312	1421.796508789062	-0.8903061747550964	-541.9356079101562	1303.45947265625	27.52591705322266	-818.103759765625	1310.95458984375	47.59371566772461	-704.321533203125	1397.618896484375	-102.4058380126953	-575.158203125	1407.245971679688	-143.9057006835938	-604.1179809570312	1354.870483398438	-273.6968994140625	-711.3573608398438	1202.192260742188	-386.4115600585938	-796.1006469726562	1228.656860351562	-333.004638671875	-752.3809814453125	996.42138671875	-397.2041625976562	-805.3886108398438	1006.776794433594	-450.8489074707031	-739.1741333007812	1122.573120117188	-421.0238952636719	-812.7783813476562	840.0083618164062	-402.8981018066406	-833.2459716796875	923.7021484375	-452.8688354492188	-772.1991577148438	911.427734375	-414.9767761230469	-704.173095703125	1366.13134765625	165.0163116455078	-756.1043701171875	1303.070068359375	220.4501647949219	-782.9955444335938	1039.19970703125	265.2151184082031	-812.7244262695312	994.3798217773438	220.2064819335938	-573.3160400390625	984.2681884765625	239.9699401855469	-601.8699340820312	916.2083740234375	288.2995300292969	-741.732177734375	999.1554565429688	276.1846923828125	-439.2582397460938	904.0768432617188	242.5695190429688	-483.2343139648438	945.617919921875	256.5341491699219	-515.1982421875	884.330078125	288.3934936523438	-686.9530639648438	1587.365478515625	96.019287109375	-495.3780517578125	1623.043823242188	26.88499641418457	-560.7940673828125	1621.115112304688	140.2407531738281	-612.70556640625	1592.5830078125	-66.06753540039062	-630.8975830078125	846.9642333984375	-245.8505401611328	-884.463134765625	842.6437377929688	68.86840057373047	-757.57470703125	858.3318481445312	78.35707092285156	-613.3265380859375	871.6851196289062	-125.6523971557617	-485.1729736328125	461.2066040039062	-136.8058929443359	-493.9448547363281	622.4164428710938	-161.3359832763672	-750.6392822265625	128.1287841796875	-253.8488464355469	-564.565673828125	325.4735717773438	-185.6056518554688	-583.6624755859375	59.77447891235352	-113.7733840942383	-654.2381591796875	81.12507629394531	-108.0209732055664	-620.0281372070312	78.6180419921875	-215.4483337402344	-813.0626220703125	154.0972137451172	-222.8343963623047	-934.9988403320312	456.0005187988281	0.8337932825088501	-878.785400390625	700.3394775390625	79.64864349365234	-1181.306274414062	113.0607757568359	-144.2175903320312	-1009.121032714844	330.2887268066406	-29.8493595123291	-997.1864013671875	46.51886749267578	-103.8519058227539	-1020.200744628906	58.81460571289062	-157.8892669677734	-1095.557983398438	46.67473602294922	-78.710205078125	-1206.315551757812	153.4972686767578	-210.0846252441406	
222	2.21	-864.7255859375	976.0723876953125	-86.68837738037109	-790.7601318359375	964.4330444335938	-207.7596893310547	-806.50439453125	1071.010864257812	-97.55760192871094	-513.6129760742188	1193.658325195312	30.646484375	-791.8382568359375	1192.408203125	-74.82546997070312	-687.6974487304688	1429.53564453125	6.664010524749756	-523.134033203125	1312.332641601562	33.98423385620117	-798.6782836914062	1318.929809570312	56.93470001220703	-685.956787109375	1405.282470703125	-94.19477081298828	-557.1043090820312	1415.586059570312	-136.1549072265625	-586.4341430664062	1365.388305664062	-266.0950927734375	-696.9685668945312	1213.355590820312	-377.4918212890625	-780.503662109375	1239.850830078125	-322.5080871582031	-737.2698974609375	1006.950317382812	-386.9652404785156	-791.29052734375	1016.738891601562	-439.9339294433594	-725.1051025390625	1133.5830078125	-411.6485290527344	-797.637939453125	850.1491088867188	-389.8413696289062	-819.020751953125	933.2447509765625	-440.6289672851562	-757.1709594726562	921.6018676757812	-403.7178955078125	-683.4989624023438	1374.821166992188	172.4216766357422	-734.3672485351562	1312.314208984375	229.1409912109375	-760.5792846679688	1049.569091796875	275.2291259765625	-791.5352783203125	1004.05078125	231.5799255371094	-551.1953735351562	999.1671142578125	242.7900695800781	-575.9905395507812	930.2172241210938	292.231201171875	-718.0255126953125	1010.509826660156	284.7721557617188	-414.6186828613281	924.3024291992188	240.1172943115234	-459.3741455078125	964.1041870117188	256.6104736328125	-487.9754333496094	901.5270385742188	289.5666809082031	-667.7745971679688	1595.466796875	102.3882217407227	-476.0372009277344	1629.993041992188	33.27569961547852	-541.3723754882812	1628.510375976562	146.6085052490234	-593.4984741210938	1600.358764648438	-59.68268966674805	-610.4383544921875	855.2326049804688	-235.3664703369141	-865.426513671875	850.5363159179688	77.82572937011719	-737.9995727539062	865.7396240234375	87.98725891113281	-593.5115966796875	879.6279907226562	-115.3115539550781	-465.8630676269531	467.7845458984375	-124.8947372436523	-476.1109924316406	629.5414428710938	-150.3996887207031	-705.0751953125	111.6067199707031	-228.6464691162109	-534.9354858398438	325.3253173828125	-168.6792449951172	-534.0037841796875	62.37210083007812	-85.91773223876953	-605.9847412109375	77.99746704101562	-81.11048889160156	-571.2791137695312	73.81114959716797	-188.2577209472656	-769.4406127929688	134.0831298828125	-198.7319641113281	-923.8693237304688	465.4025268554688	9.003983497619629	-862.0222778320312	708.4541015625	88.51572418212891	-1174.570434570312	123.261848449707	-137.7393646240234	-999.8103637695312	340.6548156738281	-21.47137832641602	-996.7484130859375	45.71576309204102	-102.7455139160156	-1017.808837890625	60.34704208374023	-155.2835540771484	-1093.036743164062	48.21050262451172	-76.21784210205078	-1196.674194335938	168.2903900146484	-201.5352020263672	
